<svg xmlns="http://www.w3.org/2000/svg"  viewBox="0 0 64 64" width="48px" height="48px"><path d="M 21 13 C 16.02 13 12.590937 14.938391 10.710938 16.400391 C 9.6259375 17.244391 9 18.542969 9 19.917969 L 9 49.072266 C 9 50.176266 9.9085781 50.974609 10.892578 50.974609 C 11.212578 50.974609 11.538703 50.890078 11.845703 50.705078 C 13.986703 49.413078 17.199 48 21 48 C 23.973 48 26.40375 48.902453 28.21875 49.939453 C 29.39175 50.610453 30.696 50.945312 32 50.945312 C 33.304 50.945312 34.60825 50.610453 35.78125 49.939453 C 37.59625 48.902453 40.027 48 43 48 C 46.801 48 50.013297 49.412125 52.154297 50.703125 C 52.461297 50.888125 52.788422 50.972656 53.107422 50.972656 C 54.091422 50.972656 55 50.176266 55 49.072266 L 55 19.917969 C 55 18.542969 54.374063 17.244391 53.289062 16.400391 C 51.409063 14.938391 47.98 13 43 13 C 35 13 32 17 32 17 C 32 17 29 13 21 13 z M 21 17 C 25.109588 17 28.1588 19.046945 30 20.736328 L 30 45.966797 C 28.163739 45.076552 25.122098 44 21 44 C 17.939 44 15.215 44.731391 13 45.650391 L 13 19.722656 C 13 19.722656 16.028 17 21 17 z M 43 17 C 47.991 17 51 19.691406 51 19.691406 L 51 45.650391 C 48.785 44.731391 46.061 44 43 44 C 38.885357 44 35.839103 45.078118 34 45.96875 L 34 20.734375 C 35.840316 19.045332 38.888336 17 43 17 z"/></svg>